<?xml version="1.0" encoding="UTF-8" standalone="no"?><svg xmlns="http://www.w3.org/2000/svg" xmlns:xlink="http://www.w3.org/1999/xlink" contentStyleType="text/css" height="719px" preserveAspectRatio="none" style="width:508px;height:719px;background:#FFFFFF;" version="1.1" viewBox="0 0 508 719" width="508px" zoomAndPan="magnify"><defs/><g><rect height="580.5898" style="stroke:#000000;stroke-width:1.5;fill:none;" width="491.5" x="10" y="69.9766"/><line style="stroke:#181818;stroke-width:0.5;fill:none;stroke-dasharray:5.0,5.0;" x1="54" x2="54" y1="52.9766" y2="667.5664"/><line style="stroke:#181818;stroke-width:0.5;fill:none;stroke-dasharray:5.0,5.0;" x1="286" x2="286" y1="52.9766" y2="667.5664"/><line style="stroke:#181818;stroke-width:0.5;fill:none;stroke-dasharray:5.0,5.0;" x1="451" x2="451" y1="155.5859" y2="667.5664"/><rect fill="#E2E2F0" height="30.4883" rx="2.5" ry="2.5" style="stroke:#181818;stroke-width:0.5;" width="69" x="20" y="21.4883"/><text fill="#000000" font-family="sans-serif" font-size="14" lengthAdjust="spacing" textLength="55" x="27" y="42.0234">Browser</text><rect fill="#E2E2F0" height="30.4883" rx="2.5" ry="2.5" style="stroke:#181818;stroke-width:0.5;" width="69" x="20" y="666.5664"/><text fill="#000000" font-family="sans-serif" font-size="14" lengthAdjust="spacing" textLength="55" x="27" y="687.1016">Browser</text><rect fill="#E2E2F0" height="46.9766" rx="2.5" ry="2.5" style="stroke:#181818;stroke-width:0.5;" width="81" x="246" y="5"/><text fill="#000000" font-family="sans-serif" font-size="14" lengthAdjust="spacing" textLength="67" x="253" y="25.5352">Notebook</text><text fill="#000000" font-family="sans-serif" font-size="14" lengthAdjust="spacing" textLength="43" x="265" y="42.0234">Server</text><rect fill="#E2E2F0" height="46.9766" rx="2.5" ry="2.5" style="stroke:#181818;stroke-width:0.5;" width="81" x="246" y="666.5664"/><text fill="#000000" font-family="sans-serif" font-size="14" lengthAdjust="spacing" textLength="67" x="253" y="687.1016">Notebook</text><text fill="#000000" font-family="sans-serif" font-size="14" lengthAdjust="spacing" textLength="43" x="265" y="703.5898">Server</text><rect fill="#E2E2F0" height="46.9766" rx="2.5" ry="2.5" style="stroke:#181818;stroke-width:0.5;" width="71" x="416" y="666.5664"/><text fill="#000000" font-family="sans-serif" font-size="14" lengthAdjust="spacing" textLength="44" x="429.5" y="687.1016">Kernel</text><text fill="#000000" font-family="sans-serif" font-size="14" lengthAdjust="spacing" textLength="57" x="423" y="703.5898">Instance</text><path d="M10,69.9766 L72,69.9766 L72,77.2871 L62,87.2871 L10,87.2871 L10,69.9766 " fill="#EEEEEE" style="stroke:#000000;stroke-width:1.5;"/><rect fill="none" height="580.5898" style="stroke:#000000;stroke-width:1.5;" width="491.5" x="10" y="69.9766"/><text fill="#000000" font-family="sans-serif" font-size="13" font-weight="bold" lengthAdjust="spacing" textLength="17" x="25" y="83.5449">alt</text><text fill="#000000" font-family="sans-serif" font-size="11" font-weight="bold" lengthAdjust="spacing" textLength="92" x="87" y="82.6113">[first execution:]</text><polygon fill="#181818" points="274.5,104.5977,284.5,108.5977,274.5,112.5977,278.5,108.5977" style="stroke:#181818;stroke-width:1.0;"/><line style="stroke:#181818;stroke-width:1.0;" x1="54.5" x2="280.5" y1="108.5977" y2="108.5977"/><text fill="#000000" font-family="sans-serif" font-size="13" lengthAdjust="spacing" textLength="115" x="61.5" y="103.8555">Execute Notebook</text><polygon fill="#181818" points="404,118.5977,414,122.5977,404,126.5977,408,122.5977" style="stroke:#181818;stroke-width:1.0;"/><line style="stroke:#181818;stroke-width:1.0;" x1="286.5" x2="410" y1="122.5977" y2="122.5977"/><rect fill="#E2E2F0" height="46.9766" rx="2.5" ry="2.5" style="stroke:#181818;stroke-width:0.5;" width="71" x="416" y="116.5977"/><text fill="#000000" font-family="sans-serif" font-size="14" lengthAdjust="spacing" textLength="44" x="429.5" y="137.1328">Kernel</text><text fill="#000000" font-family="sans-serif" font-size="14" lengthAdjust="spacing" textLength="57" x="423" y="153.6211">Instance</text><line style="stroke:#181818;stroke-width:1.0;" x1="286.5" x2="328.5" y1="195.8848" y2="195.8848"/><line style="stroke:#181818;stroke-width:1.0;" x1="328.5" x2="328.5" y1="195.8848" y2="208.8848"/><line style="stroke:#181818;stroke-width:1.0;" x1="287.5" x2="328.5" y1="208.8848" y2="208.8848"/><polygon fill="#181818" points="297.5,204.8848,287.5,208.8848,297.5,212.8848,293.5,208.8848" style="stroke:#181818;stroke-width:1.0;"/><text fill="#000000" font-family="sans-serif" font-size="13" lengthAdjust="spacing" textLength="61" x="293.5" y="191.1426">get cells()</text><polygon fill="#181818" points="65.5,249.5059,55.5,253.5059,65.5,257.5059,61.5,253.5059" style="stroke:#181818;stroke-width:1.0;"/><line style="stroke:#181818;stroke-width:1.0;" x1="59.5" x2="285.5" y1="253.5059" y2="253.5059"/><text fill="#000000" font-family="sans-serif" font-size="13" lengthAdjust="spacing" textLength="208" x="71.5" y="233.4531">dynamic html - render mimetype</text><text fill="#000000" font-family="sans-serif" font-size="13" lengthAdjust="spacing" textLength="98" x="71.5" y="248.7637">text/markdown</text><polygon fill="#181818" points="439.5,278.8164,449.5,282.8164,439.5,286.8164,443.5,282.8164" style="stroke:#181818;stroke-width:1.0;"/><line style="stroke:#181818;stroke-width:1.0;" x1="286.5" x2="445.5" y1="282.8164" y2="282.8164"/><text fill="#000000" font-family="sans-serif" font-size="13" lengthAdjust="spacing" textLength="125" x="293.5" y="278.0742">const name = 'John'</text><line style="stroke:#181818;stroke-width:1.0;" x1="451.5" x2="493.5" y1="296.8164" y2="296.8164"/><line style="stroke:#181818;stroke-width:1.0;" x1="493.5" x2="493.5" y1="296.8164" y2="309.8164"/><line style="stroke:#181818;stroke-width:1.0;" x1="452.5" x2="493.5" y1="309.8164" y2="309.8164"/><polygon fill="#181818" points="462.5,305.8164,452.5,309.8164,462.5,313.8164,458.5,309.8164" style="stroke:#181818;stroke-width:1.0;"/><polygon fill="#181818" points="297.5,335.127,287.5,339.127,297.5,343.127,293.5,339.127" style="stroke:#181818;stroke-width:1.0;"/><line style="stroke:#181818;stroke-width:1.0;stroke-dasharray:2.0,2.0;" x1="291.5" x2="450.5" y1="339.127" y2="339.127"/><text fill="#000000" font-family="sans-serif" font-size="13" lengthAdjust="spacing" textLength="34" x="303.5" y="334.3848">'John'</text><polygon fill="#181818" points="65.5,364.4375,55.5,368.4375,65.5,372.4375,61.5,368.4375" style="stroke:#181818;stroke-width:1.0;"/><line style="stroke:#181818;stroke-width:1.0;" x1="59.5" x2="285.5" y1="368.4375" y2="368.4375"/><text fill="#000000" font-family="sans-serif" font-size="13" lengthAdjust="spacing" textLength="171" x="71.5" y="363.6953">dynamic html - render text</text><polygon fill="#181818" points="439.5,393.748,449.5,397.748,439.5,401.748,443.5,397.748" style="stroke:#181818;stroke-width:1.0;"/><line style="stroke:#181818;stroke-width:1.0;" x1="286.5" x2="445.5" y1="397.748" y2="397.748"/><text fill="#000000" font-family="sans-serif" font-size="13" lengthAdjust="spacing" textLength="141" x="293.5" y="393.0059">`My name is ${name}`</text><line style="stroke:#181818;stroke-width:1.0;" x1="451.5" x2="493.5" y1="411.748" y2="411.748"/><line style="stroke:#181818;stroke-width:1.0;" x1="493.5" x2="493.5" y1="411.748" y2="424.748"/><line style="stroke:#181818;stroke-width:1.0;" x1="452.5" x2="493.5" y1="424.748" y2="424.748"/><polygon fill="#181818" points="462.5,420.748,452.5,424.748,462.5,428.748,458.5,424.748" style="stroke:#181818;stroke-width:1.0;"/><polygon fill="#181818" points="297.5,450.0586,287.5,454.0586,297.5,458.0586,293.5,454.0586" style="stroke:#181818;stroke-width:1.0;"/><line style="stroke:#181818;stroke-width:1.0;stroke-dasharray:2.0,2.0;" x1="291.5" x2="450.5" y1="454.0586" y2="454.0586"/><text fill="#000000" font-family="sans-serif" font-size="13" lengthAdjust="spacing" textLength="109" x="303.5" y="449.3164">'My name is John'</text><polygon fill="#181818" points="65.5,479.3691,55.5,483.3691,65.5,487.3691,61.5,483.3691" style="stroke:#181818;stroke-width:1.0;"/><line style="stroke:#181818;stroke-width:1.0;" x1="59.5" x2="285.5" y1="483.3691" y2="483.3691"/><text fill="#000000" font-family="sans-serif" font-size="13" lengthAdjust="spacing" textLength="171" x="71.5" y="478.627">dynamic html - render text</text><line style="stroke:#000000;stroke-width:1.0;stroke-dasharray:2.0,2.0;" x1="10" x2="501.5" y1="492.3691" y2="492.3691"/><text fill="#000000" font-family="sans-serif" font-size="11" font-weight="bold" lengthAdjust="spacing" textLength="121" x="15" y="503.0039">[Kernel Still Running]</text><polygon fill="#181818" points="274.5,523.6348,284.5,527.6348,274.5,531.6348,278.5,527.6348" style="stroke:#181818;stroke-width:1.0;"/><line style="stroke:#181818;stroke-width:1.0;" x1="54.5" x2="280.5" y1="527.6348" y2="527.6348"/><text fill="#000000" font-family="sans-serif" font-size="13" lengthAdjust="spacing" textLength="75" x="61.5" y="522.8926">Execute cell</text><polygon fill="#181818" points="439.5,552.9453,449.5,556.9453,439.5,560.9453,443.5,556.9453" style="stroke:#181818;stroke-width:1.0;"/><line style="stroke:#181818;stroke-width:1.0;" x1="286.5" x2="445.5" y1="556.9453" y2="556.9453"/><text fill="#000000" font-family="sans-serif" font-size="13" lengthAdjust="spacing" textLength="141" x="293.5" y="552.2031">`My name is ${name}`</text><line style="stroke:#181818;stroke-width:1.0;" x1="451.5" x2="493.5" y1="570.9453" y2="570.9453"/><line style="stroke:#181818;stroke-width:1.0;" x1="493.5" x2="493.5" y1="570.9453" y2="583.9453"/><line style="stroke:#181818;stroke-width:1.0;" x1="452.5" x2="493.5" y1="583.9453" y2="583.9453"/><polygon fill="#181818" points="462.5,579.9453,452.5,583.9453,462.5,587.9453,458.5,583.9453" style="stroke:#181818;stroke-width:1.0;"/><polygon fill="#181818" points="297.5,609.2559,287.5,613.2559,297.5,617.2559,293.5,613.2559" style="stroke:#181818;stroke-width:1.0;"/><line style="stroke:#181818;stroke-width:1.0;stroke-dasharray:2.0,2.0;" x1="291.5" x2="450.5" y1="613.2559" y2="613.2559"/><text fill="#000000" font-family="sans-serif" font-size="13" lengthAdjust="spacing" textLength="109" x="303.5" y="608.5137">'My name is John'</text><polygon fill="#181818" points="65.5,638.5664,55.5,642.5664,65.5,646.5664,61.5,642.5664" style="stroke:#181818;stroke-width:1.0;"/><line style="stroke:#181818;stroke-width:1.0;" x1="59.5" x2="285.5" y1="642.5664" y2="642.5664"/><text fill="#000000" font-family="sans-serif" font-size="13" lengthAdjust="spacing" textLength="171" x="71.5" y="637.8242">dynamic html - render text</text><!--MD5=[7768761810f176655a5c1d59cd234880]
@startuml
participant Browser as browser
participant "Notebook\nServer" as server
participant "Kernel\nInstance" as kernel


alt first execution:
    browser -> server: Execute Notebook

    server -> kernel **

    server -> server: get cells()

    server -> browser: dynamic html - render mimetype\ntext/markdown

    server -> kernel : const name = 'John'
    kernel -> kernel :
    kernel - -> server: 'John'
    server -> browser: dynamic html - render text

    server -> kernel : `My name is ${name}`
    kernel -> kernel :
    kernel - -> server: 'My name is John'
    server -> browser: dynamic html - render text

else Kernel Still Running
    browser -> server: Execute cell

    server -> kernel : `My name is ${name}`
    kernel -> kernel :
    kernel - -> server: 'My name is John'
    server -> browser: dynamic html - render text

end alt
@enduml

PlantUML version 1.2022.5(Sat Apr 30 05:55:52 CDT 2022)
(GPL source distribution)
Java Runtime: OpenJDK Runtime Environment
JVM: OpenJDK 64-Bit Server VM
Default Encoding: UTF-8
Language: en
Country: US
--></g></svg>