<?xml version="1.0" encoding="UTF-8" standalone="no"?><svg xmlns="http://www.w3.org/2000/svg" xmlns:xlink="http://www.w3.org/1999/xlink" contentStyleType="text/css" height="447px" preserveAspectRatio="none" style="width:812px;height:447px;background:#FFFFFF;" version="1.1" viewBox="0 0 812 447" width="812px" zoomAndPan="magnify"><defs/><g><rect height="133.5527" style="stroke:#000000;stroke-width:1.5;fill:none;" width="403" x="10" y="202.5293"/><line style="stroke:#181818;stroke-width:0.5;fill:none;stroke-dasharray:5.0,5.0;" x1="42" x2="42" y1="52.9766" y2="395.3926"/><line style="stroke:#181818;stroke-width:0.5;fill:none;stroke-dasharray:5.0,5.0;" x1="240.5" x2="240.5" y1="52.9766" y2="395.3926"/><line style="stroke:#181818;stroke-width:0.5;fill:none;stroke-dasharray:5.0,5.0;" x1="457.5" x2="457.5" y1="52.9766" y2="395.3926"/><line style="stroke:#181818;stroke-width:0.5;fill:none;stroke-dasharray:5.0,5.0;" x1="770.5" x2="770.5" y1="52.9766" y2="395.3926"/><rect fill="#E2E2F0" height="30.4883" rx="2.5" ry="2.5" style="stroke:#181818;stroke-width:0.5;" width="44" x="20" y="21.4883"/><text fill="#000000" font-family="sans-serif" font-size="14" lengthAdjust="spacing" textLength="30" x="27" y="42.0234">CDN</text><rect fill="#E2E2F0" height="30.4883" rx="2.5" ry="2.5" style="stroke:#181818;stroke-width:0.5;" width="44" x="20" y="394.3926"/><text fill="#000000" font-family="sans-serif" font-size="14" lengthAdjust="spacing" textLength="30" x="27" y="414.9277">CDN</text><rect fill="#E2E2F0" height="30.4883" rx="2.5" ry="2.5" style="stroke:#181818;stroke-width:0.5;" width="69" x="206.5" y="21.4883"/><text fill="#000000" font-family="sans-serif" font-size="14" lengthAdjust="spacing" textLength="55" x="213.5" y="42.0234">Browser</text><rect fill="#E2E2F0" height="30.4883" rx="2.5" ry="2.5" style="stroke:#181818;stroke-width:0.5;" width="69" x="206.5" y="394.3926"/><text fill="#000000" font-family="sans-serif" font-size="14" lengthAdjust="spacing" textLength="55" x="213.5" y="414.9277">Browser</text><rect fill="#E2E2F0" height="46.9766" rx="2.5" ry="2.5" style="stroke:#181818;stroke-width:0.5;" width="81" x="417.5" y="5"/><text fill="#000000" font-family="sans-serif" font-size="14" lengthAdjust="spacing" textLength="67" x="424.5" y="25.5352">Notebook</text><text fill="#000000" font-family="sans-serif" font-size="14" lengthAdjust="spacing" textLength="43" x="436.5" y="42.0234">Server</text><rect fill="#E2E2F0" height="46.9766" rx="2.5" ry="2.5" style="stroke:#181818;stroke-width:0.5;" width="81" x="417.5" y="394.3926"/><text fill="#000000" font-family="sans-serif" font-size="14" lengthAdjust="spacing" textLength="67" x="424.5" y="414.9277">Notebook</text><text fill="#000000" font-family="sans-serif" font-size="14" lengthAdjust="spacing" textLength="43" x="436.5" y="431.416">Server</text><rect fill="#E2E2F0" height="46.9766" rx="2.5" ry="2.5" style="stroke:#181818;stroke-width:0.5;" width="71" x="735.5" y="5"/><text fill="#000000" font-family="sans-serif" font-size="14" lengthAdjust="spacing" textLength="44" x="749" y="25.5352">Kernel</text><text fill="#000000" font-family="sans-serif" font-size="14" lengthAdjust="spacing" textLength="57" x="742.5" y="42.0234">Instance</text><rect fill="#E2E2F0" height="46.9766" rx="2.5" ry="2.5" style="stroke:#181818;stroke-width:0.5;" width="71" x="735.5" y="394.3926"/><text fill="#000000" font-family="sans-serif" font-size="14" lengthAdjust="spacing" textLength="44" x="749" y="414.9277">Kernel</text><text fill="#000000" font-family="sans-serif" font-size="14" lengthAdjust="spacing" textLength="57" x="742.5" y="431.416">Instance</text><polygon fill="#181818" points="446,80.2871,456,84.2871,446,88.2871,450,84.2871" style="stroke:#181818;stroke-width:1.0;"/><line style="stroke:#181818;stroke-width:1.0;" x1="241" x2="452" y1="84.2871" y2="84.2871"/><text fill="#000000" font-family="sans-serif" font-size="13" lengthAdjust="spacing" textLength="75" x="248" y="79.5449">Execute cell</text><polygon fill="#181818" points="759,94.2871,769,98.2871,759,102.2871,763,98.2871" style="stroke:#181818;stroke-width:1.0;"/><line style="stroke:#181818;stroke-width:1.0;" x1="458" x2="765" y1="98.2871" y2="98.2871"/><polygon fill="#181818" points="469,154.2188,459,158.2188,469,162.2188,465,158.2188" style="stroke:#181818;stroke-width:1.0;"/><line style="stroke:#181818;stroke-width:1.0;stroke-dasharray:2.0,2.0;" x1="463" x2="770" y1="158.2188" y2="158.2188"/><text fill="#000000" font-family="sans-serif" font-size="13" lengthAdjust="spacing" textLength="154" x="475" y="122.8555">(data formatted as JSON,</text><text fill="#000000" font-family="sans-serif" font-size="13" lengthAdjust="spacing" textLength="289" x="475" y="138.166">onReady node passed as .toString() JavaScript,</text><text fill="#000000" font-family="sans-serif" font-size="13" lengthAdjust="spacing" textLength="27" x="479" y="153.4766">etc.)</text><polygon fill="#181818" points="252,183.5293,242,187.5293,252,191.5293,248,187.5293" style="stroke:#181818;stroke-width:1.0;"/><line style="stroke:#181818;stroke-width:1.0;" x1="246" x2="457" y1="187.5293" y2="187.5293"/><text fill="#000000" font-family="sans-serif" font-size="13" lengthAdjust="spacing" textLength="164" x="258" y="182.7871">HTML + JavaScript + JSON</text><path d="M10,202.5293 L84,202.5293 L84,209.8398 L74,219.8398 L10,219.8398 L10,202.5293 " fill="#EEEEEE" style="stroke:#000000;stroke-width:1.5;"/><rect fill="none" height="133.5527" style="stroke:#000000;stroke-width:1.5;" width="403" x="10" y="202.5293"/><text fill="#000000" font-family="sans-serif" font-size="13" font-weight="bold" lengthAdjust="spacing" textLength="29" x="25" y="216.0977">loop</text><text fill="#000000" font-family="sans-serif" font-size="11" font-weight="bold" lengthAdjust="spacing" textLength="208" x="99" y="215.1641">[load dependencies in order of array]</text><polygon fill="#181818" points="53,252.4609,43,256.4609,53,260.4609,49,256.4609" style="stroke:#181818;stroke-width:1.0;"/><line style="stroke:#181818;stroke-width:1.0;" x1="47" x2="240" y1="256.4609" y2="256.4609"/><text fill="#000000" font-family="sans-serif" font-size="13" lengthAdjust="spacing" textLength="118" x="59" y="236.4082">generate script tag</text><text fill="#000000" font-family="sans-serif" font-size="13" lengthAdjust="spacing" textLength="175" x="59" y="251.7188">load dependency from array</text><polygon fill="#181818" points="229,266.4609,239,270.4609,229,274.4609,233,270.4609" style="stroke:#181818;stroke-width:1.0;"/><line style="stroke:#181818;stroke-width:1.0;stroke-dasharray:2.0,2.0;" x1="42" x2="235" y1="270.4609" y2="270.4609"/><line style="stroke:#181818;stroke-width:1.0;" x1="241" x2="283" y1="315.082" y2="315.082"/><line style="stroke:#181818;stroke-width:1.0;" x1="283" x2="283" y1="315.082" y2="328.082"/><line style="stroke:#181818;stroke-width:1.0;" x1="242" x2="283" y1="328.082" y2="328.082"/><polygon fill="#181818" points="252,324.082,242,328.082,252,332.082,248,328.082" style="stroke:#181818;stroke-width:1.0;"/><text fill="#000000" font-family="sans-serif" font-size="13" lengthAdjust="spacing" textLength="119" x="248" y="295.0293">script.onload(uuid)</text><text fill="#000000" font-family="sans-serif" font-size="13" lengthAdjust="spacing" textLength="153" x="248" y="310.3398">to check if done loading</text><line style="stroke:#181818;stroke-width:1.0;" x1="241" x2="283" y1="364.3926" y2="364.3926"/><line style="stroke:#181818;stroke-width:1.0;" x1="283" x2="283" y1="364.3926" y2="377.3926"/><line style="stroke:#181818;stroke-width:1.0;" x1="242" x2="283" y1="377.3926" y2="377.3926"/><polygon fill="#181818" points="252,373.3926,242,377.3926,252,381.3926,248,377.3926" style="stroke:#181818;stroke-width:1.0;"/><text fill="#000000" font-family="sans-serif" font-size="13" lengthAdjust="spacing" textLength="203" x="248" y="359.6504">onReady() executed in JavaScript</text><!--MD5=[84fa6c6e7574c6fbd53b6932b6c1418d]
@startuml
participant "CDN" as cdn
participant Browser as browser
participant "Notebook\nServer" as server
participant "Kernel\nInstance" as kernel

browser -> server: Execute cell

server -> kernel:
kernel - -> server: (data formatted as JSON,\nonReady node passed as .toString() JavaScript,\n etc.)

server -> browser: HTML + JavaScript + JSON

loop load dependencies in order of array
    browser -> cdn: generate script tag\nload dependency from array
    cdn - -> browser:
    browser -> browser: script.onload(uuid)\nto check if done loading
end loop

browser -> browser: onReady() executed in JavaScript
@enduml

PlantUML version 1.2022.5(Sat Apr 30 05:55:52 CDT 2022)
(GPL source distribution)
Java Runtime: OpenJDK Runtime Environment
JVM: OpenJDK 64-Bit Server VM
Default Encoding: UTF-8
Language: en
Country: US
--></g></svg>