<svg xmlns="http://www.w3.org/2000/svg" version="1.1" xmlns:xlink="http://www.w3.org/1999/xlink" xmlns:svgjs="http://svgjs.dev/svgjs" width="400" height="400"><rect width="10" height="10" x="195" y="195" fill="#f3f608" transform="matrix(29.368305384662413,-24.642934216571984,24.642934216571984,29.368305384662413,-10602.24792024688,-745.0742336180872)"></rect><rect width="10" height="10" x="195" y="195" fill="#e7ed11" transform="matrix(17.865094844889082,-26.486092315810748,26.486092315810748,17.865094844889082,-8670.237432139966,1924.1994941843318)"></rect><rect width="10" height="10" x="195" y="195" fill="#dbe519" transform="matrix(8.227062430701652,-25.320294602283536,25.320294602283536,8.227062430701652,-6509.4714065970375,3618.646434316376)"></rect><rect width="10" height="10" x="195" y="195" fill="#cfdc21" transform="matrix(0.7742841100381899,-22.17259588799076,22.17259588799076,0.7742841100381899,-4389.37599960579,4479.6623555905135)"></rect><rect width="10" height="10" x="195" y="195" fill="#c3d32a" transform="matrix(-4.472755037842699,-17.939240626155865,17.939240626155865,-4.472755037842699,-2493.2971176626334,4682.399132799713)"></rect><rect width="10" height="10" x="195" y="195" fill="#b6ca32" transform="matrix(-7.703510787293187,-13.34287208024671,13.34287208024671,-7.703510787293187,-927.8722585907047,4409.276573507979)"></rect><rect width="10" height="10" x="195" y="195" fill="#aac13a" transform="matrix(-9.235736519396875,-8.918847083857312,8.918847083857312,-9.235736519396875,263.37788710791256,3830.9167206508373)"></rect><rect width="10" height="10" x="195" y="195" fill="#9eb942" transform="matrix(-9.44693931417124,-5.023026733678467,5.023026733678467,-9.44693931417124,1084.7825160985549,3093.9932095699414)"></rect><rect width="10" height="10" x="195" y="195" fill="#92b04b" transform="matrix(-8.721262261363215,-1.8537615196978838,1.8537615196978838,-8.721262261363215,1573.5001483330661,2315.0047562122195)"></rect><rect width="10" height="10" x="195" y="195" fill="#86a753" transform="matrix(-7.4119843964047405,0.5182964390156299,-0.5182964390156299,-7.4119843964047405,1786.056167084074,1578.737591477822)"></rect><rect width="10" height="10" x="195" y="195" fill="#7a9e5b" transform="matrix(-5.818329025980619,2.1176985786240126,-2.1176985786240126,-5.818329025980619,1787.2055209209263,940.1260894713212)"></rect><rect width="10" height="10" x="195" y="195" fill="#6e9564" transform="matrix(-4.1743499920099465,3.0328427959740663,-3.0328427959740663,-4.1743499920099465,1641.4385575968026,428.30143920717603)"></rect><rect width="10" height="10" x="195" y="195" fill="#628d6c" transform="matrix(-2.6472316532238858,3.3883020030205637,-3.3883020030205637,-2.6472316532238858,1407.10673124889,51.78593004066431)"></rect><rect width="10" height="10" x="195" y="195" fill="#568474" transform="matrix(-1.3422831530813015,3.3222673857537046,-3.3222673857537046,-1.3422831530813015,1132.9101077670011,-195.99684653448065)"></rect><rect width="10" height="10" x="195" y="195" fill="#4a7b7d" transform="matrix(-0.31212031886180047,2.9696264672193378,-2.9696264672193378,-0.31212031886180047,856.3493572162276,-331.5012296715076)"></rect><rect width="10" height="10" x="195" y="195" fill="#3d7285" transform="matrix(0.4320922334521764,2.450516827975337,-2.450516827975337,0.4320922334521764,603.6849189046321,-376.5218122855028)"></rect><rect width="10" height="10" x="195" y="195" fill="#31698d" transform="matrix(0.9090064099818311,1.8637393344059523,-1.8637393344059523,0.9090064099818311,390.94658488482423,-354.5491488775568)"></rect><rect width="10" height="10" x="195" y="195" fill="#256195" transform="matrix(1.156257687788107,1.284154258424937,-1.284154258424937,1.156257687788107,225.579314127366,-288.0823892426088)"></rect><rect width="10" height="10" x="195" y="195" fill="#19589e" transform="matrix(1.2211892584652535,0.7630837404958151,-0.7630837404958151,1.2211892584652535,108.37889640611232,-196.85459979221372)"></rect><rect width="10" height="10" x="195" y="195" fill="#0d4fa6" transform="matrix(1.1535140351259827,0.330764826980399,-0.330764826980399,1.1535140351259827,35.45015837088326,-96.85577242127636)"></rect><rect width="10" height="10" x="195" y="195" fill="#0d4fa6"></rect></svg>