<svg xmlns="http://www.w3.org/2000/svg" xmlns:xlink="http://www.w3.org/1999/xlink" version="1.1" class="marks" width="674" height="447" viewBox="0 0 674 447"><rect width="674" height="447" fill="white"/><g fill="none" stroke-miterlimit="10" transform="translate(67,10)"><g class="mark-group role-frame root" role="graphics-object" aria-roledescription="group mark container"><g transform="translate(0,0)"><path class="background" aria-hidden="true" d="M0.5,0.5h600v400h-600Z" stroke="#ddd"/><g><g class="mark-group role-axis" aria-hidden="true"><g transform="translate(0.5,400.5)"><path class="background" aria-hidden="true" d="M0,0h0v0h0Z" pointer-events="none"/><g><g class="mark-rule role-axis-grid" pointer-events="none"><line transform="translate(0,-400)" x2="0" y2="400" stroke="#ddd" stroke-width="1" opacity="1"/><line transform="translate(31,-400)" x2="0" y2="400" stroke="#ddd" stroke-width="1" opacity="1"/><line transform="translate(62,-400)" x2="0" y2="400" stroke="#ddd" stroke-width="1" opacity="1"/><line transform="translate(93,-400)" x2="0" y2="400" stroke="#ddd" stroke-width="1" opacity="1"/><line transform="translate(124,-400)" x2="0" y2="400" stroke="#ddd" stroke-width="1" opacity="1"/><line transform="translate(155,-400)" x2="0" y2="400" stroke="#ddd" stroke-width="1" opacity="1"/><line transform="translate(186,-400)" x2="0" y2="400" stroke="#ddd" stroke-width="1" opacity="1"/><line transform="translate(217,-400)" x2="0" y2="400" stroke="#ddd" stroke-width="1" opacity="1"/><line transform="translate(248,-400)" x2="0" y2="400" stroke="#ddd" stroke-width="1" opacity="1"/><line transform="translate(279,-400)" x2="0" y2="400" stroke="#ddd" stroke-width="1" opacity="1"/><line transform="translate(310,-400)" x2="0" y2="400" stroke="#ddd" stroke-width="1" opacity="1"/><line transform="translate(341,-400)" x2="0" y2="400" stroke="#ddd" stroke-width="1" opacity="1"/><line transform="translate(372,-400)" x2="0" y2="400" stroke="#ddd" stroke-width="1" opacity="1"/><line transform="translate(403,-400)" x2="0" y2="400" stroke="#ddd" stroke-width="1" opacity="1"/><line transform="translate(434,-400)" x2="0" y2="400" stroke="#ddd" stroke-width="1" opacity="1"/><line transform="translate(466,-400)" x2="0" y2="400" stroke="#ddd" stroke-width="1" opacity="1"/><line transform="translate(497,-400)" x2="0" y2="400" stroke="#ddd" stroke-width="1" opacity="1"/><line transform="translate(528,-400)" x2="0" y2="400" stroke="#ddd" stroke-width="1" opacity="1"/><line transform="translate(559,-400)" x2="0" y2="400" stroke="#ddd" stroke-width="1" opacity="1"/><line transform="translate(590,-400)" x2="0" y2="400" stroke="#ddd" stroke-width="1" opacity="1"/></g></g><path class="foreground" aria-hidden="true" d="" pointer-events="none" display="none"/></g></g><g class="mark-group role-axis" aria-hidden="true"><g transform="translate(0.5,0.5)"><path class="background" aria-hidden="true" d="M0,0h0v0h0Z" pointer-events="none"/><g><g class="mark-rule role-axis-grid" pointer-events="none"><line transform="translate(0,400)" x2="600" y2="0" stroke="#ddd" stroke-width="1" opacity="1"/><line transform="translate(0,343)" x2="600" y2="0" stroke="#ddd" stroke-width="1" opacity="1"/><line transform="translate(0,286)" x2="600" y2="0" stroke="#ddd" stroke-width="1" opacity="1"/><line transform="translate(0,229)" x2="600" y2="0" stroke="#ddd" stroke-width="1" opacity="1"/><line transform="translate(0,171)" x2="600" y2="0" stroke="#ddd" stroke-width="1" opacity="1"/><line transform="translate(0,114)" x2="600" y2="0" stroke="#ddd" stroke-width="1" opacity="1"/><line transform="translate(0,57)" x2="600" y2="0" stroke="#ddd" stroke-width="1" opacity="1"/><line transform="translate(0,0)" x2="600" y2="0" stroke="#ddd" stroke-width="1" opacity="1"/></g></g><path class="foreground" aria-hidden="true" d="" pointer-events="none" display="none"/></g></g><g class="mark-group role-axis" role="graphics-symbol" aria-roledescription="axis" aria-label="X-axis titled 'Time from Store Opening' for a time scale with values from Tuesday, 01 February 2022, 8:00:00 AM to Wednesday, 02 February 2022, 3:20:00 AM"><g transform="translate(0.5,400.5)"><path class="background" aria-hidden="true" d="M0,0h0v0h0Z" pointer-events="none"/><g><g class="mark-rule role-axis-tick" pointer-events="none"><line transform="translate(0,0)" x2="0" y2="5" stroke="#888" stroke-width="1" opacity="1"/><line transform="translate(31,0)" x2="0" y2="5" stroke="#888" stroke-width="1" opacity="1"/><line transform="translate(62,0)" x2="0" y2="5" stroke="#888" stroke-width="1" opacity="1"/><line transform="translate(93,0)" x2="0" y2="5" stroke="#888" stroke-width="1" opacity="1"/><line transform="translate(124,0)" x2="0" y2="5" stroke="#888" stroke-width="1" opacity="1"/><line transform="translate(155,0)" x2="0" y2="5" stroke="#888" stroke-width="1" opacity="1"/><line transform="translate(186,0)" x2="0" y2="5" stroke="#888" stroke-width="1" opacity="1"/><line transform="translate(217,0)" x2="0" y2="5" stroke="#888" stroke-width="1" opacity="1"/><line transform="translate(248,0)" x2="0" y2="5" stroke="#888" stroke-width="1" opacity="1"/><line transform="translate(279,0)" x2="0" y2="5" stroke="#888" stroke-width="1" opacity="1"/><line transform="translate(310,0)" x2="0" y2="5" stroke="#888" stroke-width="1" opacity="1"/><line transform="translate(341,0)" x2="0" y2="5" stroke="#888" stroke-width="1" opacity="1"/><line transform="translate(372,0)" x2="0" y2="5" stroke="#888" stroke-width="1" opacity="1"/><line transform="translate(403,0)" x2="0" y2="5" stroke="#888" stroke-width="1" opacity="1"/><line transform="translate(434,0)" x2="0" y2="5" stroke="#888" stroke-width="1" opacity="1"/><line transform="translate(466,0)" x2="0" y2="5" stroke="#888" stroke-width="1" opacity="1"/><line transform="translate(497,0)" x2="0" y2="5" stroke="#888" stroke-width="1" opacity="1"/><line transform="translate(528,0)" x2="0" y2="5" stroke="#888" stroke-width="1" opacity="1"/><line transform="translate(559,0)" x2="0" y2="5" stroke="#888" stroke-width="1" opacity="1"/><line transform="translate(590,0)" x2="0" y2="5" stroke="#888" stroke-width="1" opacity="1"/></g><g class="mark-text role-axis-label" pointer-events="none"><text text-anchor="start" transform="translate(0,15)" font-family="sans-serif" font-size="10px" fill="#000" opacity="1">08 AM</text><text text-anchor="middle" transform="translate(31.03448275862069,15)" font-family="sans-serif" font-size="10px" fill="#000" opacity="0">09 AM</text><text text-anchor="middle" transform="translate(62.06896551724138,15)" font-family="sans-serif" font-size="10px" fill="#000" opacity="1">10 AM</text><text text-anchor="middle" transform="translate(93.10344827586208,15)" font-family="sans-serif" font-size="10px" fill="#000" opacity="0">11 AM</text><text text-anchor="middle" transform="translate(124.13793103448276,15)" font-family="sans-serif" font-size="10px" fill="#000" opacity="1">12 PM</text><text text-anchor="middle" transform="translate(155.17241379310346,15)" font-family="sans-serif" font-size="10px" fill="#000" opacity="0">01 PM</text><text text-anchor="middle" transform="translate(186.20689655172416,15)" font-family="sans-serif" font-size="10px" fill="#000" opacity="1">02 PM</text><text text-anchor="middle" transform="translate(217.24137931034483,15)" font-family="sans-serif" font-size="10px" fill="#000" opacity="0">03 PM</text><text text-anchor="middle" transform="translate(248.27586206896552,15)" font-family="sans-serif" font-size="10px" fill="#000" opacity="1">04 PM</text><text text-anchor="middle" transform="translate(279.3103448275862,15)" font-family="sans-serif" font-size="10px" fill="#000" opacity="0">05 PM</text><text text-anchor="middle" transform="translate(310.3448275862069,15)" font-family="sans-serif" font-size="10px" fill="#000" opacity="1">06 PM</text><text text-anchor="middle" transform="translate(341.3793103448276,15)" font-family="sans-serif" font-size="10px" fill="#000" opacity="0">07 PM</text><text text-anchor="middle" transform="translate(372.4137931034483,15)" font-family="sans-serif" font-size="10px" fill="#000" opacity="1">08 PM</text><text text-anchor="middle" transform="translate(403.44827586206895,15)" font-family="sans-serif" font-size="10px" fill="#000" opacity="0">09 PM</text><text text-anchor="middle" transform="translate(434.48275862068965,15)" font-family="sans-serif" font-size="10px" fill="#000" opacity="1">10 PM</text><text text-anchor="middle" transform="translate(465.51724137931035,15)" font-family="sans-serif" font-size="10px" fill="#000" opacity="0">11 PM</text><text text-anchor="middle" transform="translate(496.55172413793105,15)" font-family="sans-serif" font-size="10px" fill="#000" opacity="1">Wed 02</text><text text-anchor="middle" transform="translate(527.5862068965517,15)" font-family="sans-serif" font-size="10px" fill="#000" opacity="0">01 AM</text><text text-anchor="middle" transform="translate(558.6206896551724,15)" font-family="sans-serif" font-size="10px" fill="#000" opacity="1">02 AM</text><text text-anchor="middle" transform="translate(589.6551724137931,15)" font-family="sans-serif" font-size="10px" fill="#000" opacity="0">03 AM</text></g><g class="mark-rule role-axis-domain" pointer-events="none"><line transform="translate(0,0)" x2="600" y2="0" stroke="#888" stroke-width="1" opacity="1"/></g><g class="mark-text role-axis-title" pointer-events="none"><text text-anchor="middle" transform="translate(300,30)" font-family="sans-serif" font-size="11px" font-weight="bold" fill="#000" opacity="1">Time from Store Opening</text></g></g><path class="foreground" aria-hidden="true" d="" pointer-events="none" display="none"/></g></g><g class="mark-group role-axis" role="graphics-symbol" aria-roledescription="axis" aria-label="Y-axis titled '# of Doses' for a linear scale with values from 0 to 3,500"><g transform="translate(0.5,0.5)"><path class="background" aria-hidden="true" d="M0,0h0v0h0Z" pointer-events="none"/><g><g class="mark-rule role-axis-tick" pointer-events="none"><line transform="translate(0,400)" x2="-5" y2="0" stroke="#888" stroke-width="1" opacity="1"/><line transform="translate(0,343)" x2="-5" y2="0" stroke="#888" stroke-width="1" opacity="1"/><line transform="translate(0,286)" x2="-5" y2="0" stroke="#888" stroke-width="1" opacity="1"/><line transform="translate(0,229)" x2="-5" y2="0" stroke="#888" stroke-width="1" opacity="1"/><line transform="translate(0,171)" x2="-5" y2="0" stroke="#888" stroke-width="1" opacity="1"/><line transform="translate(0,114)" x2="-5" y2="0" stroke="#888" stroke-width="1" opacity="1"/><line transform="translate(0,57)" x2="-5" y2="0" stroke="#888" stroke-width="1" opacity="1"/><line transform="translate(0,0)" x2="-5" y2="0" stroke="#888" stroke-width="1" opacity="1"/></g><g class="mark-text role-axis-label" pointer-events="none"><text text-anchor="end" transform="translate(-7,403)" font-family="sans-serif" font-size="10px" fill="#000" opacity="1">0</text><text text-anchor="end" transform="translate(-7,345.8571428571429)" font-family="sans-serif" font-size="10px" fill="#000" opacity="1">500</text><text text-anchor="end" transform="translate(-7,288.7142857142857)" font-family="sans-serif" font-size="10px" fill="#000" opacity="1">1,000</text><text text-anchor="end" transform="translate(-7,231.57142857142856)" font-family="sans-serif" font-size="10px" fill="#000" opacity="1">1,500</text><text text-anchor="end" transform="translate(-7,174.42857142857144)" font-family="sans-serif" font-size="10px" fill="#000" opacity="1">2,000</text><text text-anchor="end" transform="translate(-7,117.28571428571428)" font-family="sans-serif" font-size="10px" fill="#000" opacity="1">2,500</text><text text-anchor="end" transform="translate(-7,60.14285714285716)" font-family="sans-serif" font-size="10px" fill="#000" opacity="1">3,000</text><text text-anchor="end" transform="translate(-7,3)" font-family="sans-serif" font-size="10px" fill="#000" opacity="1">3,500</text></g><g class="mark-rule role-axis-domain" pointer-events="none"><line transform="translate(0,400)" x2="0" y2="-400" stroke="#888" stroke-width="1" opacity="1"/></g><g class="mark-text role-axis-title" pointer-events="none"><text text-anchor="middle" transform="translate(-51,200) rotate(-90) translate(0,-2)" font-family="sans-serif" font-size="11px" font-weight="bold" fill="#000" opacity="1"># of Doses</text></g></g><path class="foreground" aria-hidden="true" d="" pointer-events="none" display="none"/></g></g><g class="mark-line role-mark marks" role="graphics-object" aria-roledescription="line mark container"><path aria-label="Time from Store Opening: Feb 01, 2022; # of Doses: 0" role="graphics-symbol" aria-roledescription="line mark" d="M0,400L5.172413793103448,400L5.172413793103448,396.57142857142856L10.344827586206897,396.57142857142856L10.344827586206897,393.14285714285717L15.517241379310345,393.14285714285717L15.517241379310345,389.7142857142857L20.689655172413794,389.7142857142857L20.689655172413794,386.2857142857143L25.862068965517242,386.2857142857143L25.862068965517242,382.8571428571429L31.03448275862069,382.8571428571429L31.03448275862069,379.42857142857144L36.20689655172414,379.42857142857144L36.20689655172414,376L41.37931034482759,376L41.37931034482759,372.57142857142856L46.55172413793104,372.57142857142856L46.55172413793104,369.1428571428571L51.724137931034484,369.1428571428571L51.724137931034484,365.7142857142857L56.89655172413793,365.7142857142857L56.89655172413793,362.2857142857143L62.06896551724138,362.2857142857143L62.06896551724138,358.85714285714283L67.24137931034483,358.85714285714283L67.24137931034483,355.42857142857144L72.41379310344828,355.42857142857144L72.41379310344828,352L77.58620689655173,352L77.58620689655173,348.57142857142856L82.75862068965517,348.57142857142856L82.75862068965517,345.14285714285717L87.93103448275862,345.14285714285717L87.93103448275862,341.7142857142857L93.10344827586208,341.7142857142857L93.10344827586208,338.2857142857143L98.27586206896551,338.2857142857143L98.27586206896551,334.8571428571429L103.44827586206897,334.8571428571429L103.44827586206897,331.4285714285714L108.62068965517241,331.4285714285714L108.62068965517241,328L113.79310344827586,328L113.79310344827586,324.57142857142856L118.96551724137932,324.57142857142856L118.96551724137932,321.1428571428571L124.13793103448276,321.1428571428571L124.13793103448276,317.7142857142857L129.3103448275862,317.7142857142857L129.3103448275862,314.2857142857143L134.48275862068965,314.2857142857143L134.48275862068965,310.85714285714283L139.6551724137931,310.85714285714283L139.6551724137931,307.42857142857144L144.82758620689657,307.42857142857144L144.82758620689657,304L150,304L150,300.57142857142856L155.17241379310346,300.57142857142856L155.17241379310346,297.14285714285717L160.3448275862069,297.14285714285717L160.3448275862069,293.71428571428567L165.51724137931035,293.71428571428567L165.51724137931035,290.2857142857143L170.6896551724138,290.2857142857143L170.6896551724138,286.85714285714283L175.86206896551724,286.85714285714283L175.86206896551724,283.42857142857144L181.0344827586207,283.42857142857144L181.0344827586207,280L186.20689655172416,280L186.20689655172416,276.5714285714286L191.37931034482762,276.5714285714286L191.37931034482762,273.1428571428571L196.55172413793102,273.1428571428571L196.55172413793102,269.7142857142857L201.72413793103448,269.7142857142857L201.72413793103448,266.2857142857143L206.89655172413794,266.2857142857143L206.89655172413794,262.85714285714283L212.06896551724137,262.85714285714283L212.06896551724137,259.42857142857144L217.24137931034483,259.42857142857144L217.24137931034483,256L222.41379310344828,256L222.41379310344828,252.57142857142858L227.58620689655172,252.57142857142858L227.58620689655172,249.1428571428571L232.75862068965517,249.1428571428571L232.75862068965517,245.71428571428572L237.93103448275863,245.71428571428572L237.93103448275863,242.28571428571425L243.10344827586206,242.28571428571425L243.10344827586206,238.8571428571429L248.27586206896552,238.8571428571429L248.27586206896552,235.42857142857142L253.44827586206898,235.42857142857142L253.44827586206898,232.00000000000003L258.6206896551724,232.00000000000003L258.6206896551724,228.57142857142856L263.7931034482759,228.57142857142856L263.7931034482759,225.14285714285714L268.9655172413793,225.14285714285714L268.9655172413793,221.71428571428572L274.1379310344828,221.71428571428572L274.1379310344828,218.28571428571428L279.3103448275862,218.28571428571428L279.3103448275862,214.85714285714286L284.48275862068965,214.85714285714286L284.48275862068965,211.42857142857144L289.65517241379314,211.42857142857144L289.65517241379314,208L294.82758620689657,208L294.82758620689657,204.57142857142858L300,204.57142857142858L300,201.14285714285717L305.17241379310343,201.14285714285717L305.17241379310343,197.71428571428572L310.3448275862069,197.71428571428572L310.3448275862069,194.2857142857143L315.51724137931035,194.2857142857143L315.51724137931035,190.85714285714283L320.6896551724138,190.85714285714283L320.6896551724138,187.42857142857142L325.86206896551727,187.42857142857142L325.86206896551727,184L331.0344827586207,184L331.0344827586207,180.57142857142856L336.2068965517241,180.57142857142856L336.2068965517241,177.14285714285714L341.3793103448276,177.14285714285714L341.3793103448276,173.71428571428572L346.55172413793105,173.71428571428572L346.55172413793105,170.28571428571428L351.7241379310345,170.28571428571428L351.7241379310345,166.85714285714286L356.89655172413796,166.85714285714286L356.89655172413796,163.42857142857144L362.0689655172414,163.42857142857144L362.0689655172414,160L367.24137931034477,160L367.24137931034477,156.57142857142858L372.4137931034483,156.57142857142858L372.4137931034483,153.14285714285717L377.5862068965517,153.14285714285717L377.5862068965517,149.71428571428572L382.75862068965523,149.71428571428572L382.75862068965523,146.2857142857143L387.9310344827586,146.2857142857143L387.9310344827586,142.85714285714283L393.10344827586204,142.85714285714283L393.10344827586204,139.42857142857142L398.2758620689655,139.42857142857142L398.2758620689655,136L403.44827586206895,136L403.44827586206895,132.57142857142856L408.6206896551724,132.57142857142856L408.6206896551724,129.14285714285714L413.7931034482759,129.14285714285714L413.7931034482759,125.71428571428571L418.9655172413793,125.71428571428571L418.9655172413793,122.28571428571429L424.13793103448273,122.28571428571429L424.13793103448273,118.85714285714286L429.3103448275862,118.85714285714286L429.3103448275862,115.42857142857143L434.48275862068965,115.42857142857143L434.48275862068965,112.00000000000001L439.6551724137931,112.00000000000001L439.6551724137931,108.57142857142858L444.82758620689657,108.57142857142858L444.82758620689657,105.14285714285717L450,105.14285714285717L450,101.71428571428574L455.17241379310343,101.71428571428574L455.17241379310343,98.28571428571426L460.3448275862069,98.28571428571426L460.3448275862069,94.85714285714283L465.51724137931035,94.85714285714283L465.51724137931035,91.42857142857142L470.6896551724138,91.42857142857142L470.6896551724138,87.99999999999999L475.86206896551727,87.99999999999999L475.86206896551727,84.57142857142857L481.0344827586207,84.57142857142857L481.0344827586207,81.14285714285714L486.2068965517241,81.14285714285714L486.2068965517241,77.71428571428571L491.3793103448276,77.71428571428571L491.3793103448276,74.28571428571429L496.55172413793105,74.28571428571429L496.55172413793105,70.85714285714286L501.7241379310345,70.85714285714286L501.7241379310345,67.42857142857144L506.89655172413796,67.42857142857144L506.89655172413796,64.00000000000001L512.0689655172414,64.00000000000001L512.0689655172414,60.571428571428584L517.2413793103448,60.571428571428584L517.2413793103448,57.14285714285716L522.4137931034483,57.14285714285716L522.4137931034483,53.714285714285694L527.5862068965517,53.714285714285694L527.5862068965517,50.28571428571426L532.7586206896552,50.28571428571426L532.7586206896552,46.85714285714284L537.9310344827586,46.85714285714284L537.9310344827586,43.428571428571416L543.1034482758621,43.428571428571416L543.1034482758621,39.99999999999999L548.2758620689656,39.99999999999999L548.2758620689656,36.57142857142857L553.448275862069,36.57142857142857L553.448275862069,33.14285714285714L558.6206896551724,33.14285714285714L558.6206896551724,29.714285714285715L563.7931034482759,29.714285714285715L563.7931034482759,26.285714285714292L568.9655172413793,26.285714285714292L568.9655172413793,22.857142857142865L574.1379310344828,22.857142857142865L574.1379310344828,19.428571428571438L579.3103448275863,19.428571428571438L579.3103448275863,16.000000000000014L584.4827586206897,16.000000000000014L584.4827586206897,12.571428571428589L589.6551724137931,12.571428571428589L589.6551724137931,9.142857142857164L594.8275862068966,9.142857142857164L594.8275862068966,5.714285714285694L600,5.714285714285694L600,2.2857142857142687" stroke="#4c78a8" stroke-width="2"/></g></g><path class="foreground" aria-hidden="true" d="" display="none"/></g></g></g></svg>